<?xml version="1.0" standalone="no"?><!DOCTYPE svg PUBLIC "-//W3C//DTD SVG 1.1//EN" "http://www.w3.org/Graphics/SVG/1.1/DTD/svg11.dtd"><svg t="1573340083681" class="icon" viewBox="0 0 1024 1024" version="1.1" xmlns="http://www.w3.org/2000/svg" p-id="1946" xmlns:xlink="http://www.w3.org/1999/xlink" width="200" height="200"><defs><style type="text/css"></style></defs><path d="M510.75072 539.4944m-472.18176 0a472.18176 472.18176 0 1 0 944.36352 0 472.18176 472.18176 0 1 0-944.36352 0Z" fill="#FF7100" p-id="1947"></path><path d="M508.78976 219.22816c-20.6848-44.63616 19.46624-107.20256 89.68704-139.74528 70.21568-32.54272 143.90784-22.7328 164.59776 21.90336L508.78976 219.22816z" fill="#30C03F" p-id="1948"></path><path d="M508.78976 219.22816c20.6848 44.63616 94.37696 54.44608 164.59776 21.90336 70.21568-32.54272 110.37184-95.104 89.68704-139.74528L508.78976 219.22816z" fill="#97CF43" p-id="1949"></path><path d="M370.32448 220.49792m-23.6544 0a23.6544 23.6544 0 1 0 47.3088 0 23.6544 23.6544 0 1 0-47.3088 0Z" fill="#FFA05F" p-id="1950"></path><path d="M254.208 313.6768m-23.6544 0a23.6544 23.6544 0 1 0 47.3088 0 23.6544 23.6544 0 1 0-47.3088 0Z" fill="#FFA05F" p-id="1951"></path><path d="M743.41376 281.06752m-23.6544 0a23.6544 23.6544 0 1 0 47.3088 0 23.6544 23.6544 0 1 0-47.3088 0Z" fill="#FFA05F" p-id="1952"></path><path d="M859.53024 388.224m-23.6544 0a23.6544 23.6544 0 1 0 47.3088 0 23.6544 23.6544 0 1 0-47.3088 0Z" fill="#FFA05F" p-id="1953"></path><path d="M767.06816 434.816m-23.6544 0a23.6544 23.6544 0 1 0 47.3088 0 23.6544 23.6544 0 1 0-47.3088 0Z" fill="#FFA05F" p-id="1954"></path><path d="M631.59296 346.65472m-23.6544 0a23.6544 23.6544 0 1 0 47.3088 0 23.6544 23.6544 0 1 0-47.3088 0Z" fill="#FFA05F" p-id="1955"></path><path d="M878.16704 565.26848m-23.6544 0a23.6544 23.6544 0 1 0 47.3088 0 23.6544 23.6544 0 1 0-47.3088 0Z" fill="#FFA05F" p-id="1956"></path><path d="M504.02304 224.35328s-27.4944-173.22496-8.24832-192.47104 33.90976-12.17024 41.24672-5.49888c15.12448 13.7472-16.49664 159.47776-16.49664 178.72384 0 19.24608-8.24832 38.49216-16.50176 19.24608z" fill="#5A4530" p-id="1957"></path><path d="M460.36992 221.66016s33.19808-5.24288 54.16448 0c20.9664 5.24288 22.71232 6.9888 26.20928 12.23168 3.49184 5.24288-24.45824 3.49184-24.45824 3.49184s-19.22048-5.24288-31.44704-5.24288H463.872s-13.98272-5.23776-3.50208-10.48064z" fill="#5A4530" p-id="1958"></path></svg>